<svg width="94" height="28" viewBox="0 0 94 28" fill="none" xmlns="http://www.w3.org/2000/svg">
<rect y="11.5" width="16" height="16" rx="2" fill="#1E1E1E"/>
<rect x="5" y="15.5" width="6" height="9" fill="white"/>
<path d="M4.56852 4.93276C6.23159 2.54209 9.76841 2.54209 11.4315 4.93276C13.3595 7.70433 11.3762 11.5 8 11.5C4.62376 11.5 2.64046 7.70433 4.56852 4.93276Z" fill="#1E1E1E"/>
<path d="M85.0554 5.20605C86.8314 5.20605 88.3834 5.56606 89.7114 6.28606C91.0554 6.99006 92.0874 7.98205 92.8074 9.26206C93.5274 10.5421 93.8874 12.0061 93.8874 13.6541C93.8874 15.2861 93.5194 16.7421 92.7834 18.0221C92.0634 19.3021 91.0314 20.3101 89.6874 21.0461C88.3594 21.7661 86.8154 22.1261 85.0554 22.1261H78.3594V5.20605H85.0554ZM84.6954 17.9741C86.0714 17.9741 87.1514 17.5981 87.9354 16.8461C88.7194 16.0941 89.1114 15.0301 89.1114 13.6541C89.1114 12.2621 88.7194 11.1901 87.9354 10.4381C87.1514 9.67005 86.0714 9.28606 84.6954 9.28606H83.0634V17.9741H84.6954Z" fill="#1E1E1E"/>
<path d="M71.2743 18.5261H76.5303V22.1261H66.5703V5.20605H71.2743V18.5261Z" fill="#1E1E1E"/>
<path d="M63.8915 5.20605V22.1261H59.1875V5.20605H63.8915Z" fill="#1E1E1E"/>
<path d="M46.7095 5.20605V15.0221C46.7095 15.9341 46.9175 16.6381 47.3335 17.1341C47.7655 17.6301 48.4135 17.8781 49.2775 17.8781C50.1415 17.8781 50.7895 17.6301 51.2215 17.1341C51.6695 16.6221 51.8935 15.9181 51.8935 15.0221V5.20605H56.5975V15.0221C56.5975 16.5741 56.2695 17.9021 55.6135 19.0061C54.9575 20.0941 54.0615 20.9181 52.9255 21.4781C51.8055 22.0221 50.5575 22.2941 49.1815 22.2941C47.8055 22.2941 46.5735 22.0221 45.4855 21.4781C44.4135 20.9181 43.5655 20.0941 42.9415 19.0061C42.3335 17.9181 42.0295 16.5901 42.0295 15.0221V5.20605H46.7095Z" fill="#1E1E1E"/>
<path d="M36.8 13.4381C37.792 13.6621 38.576 14.1581 39.152 14.9261C39.744 15.6781 40.04 16.5421 40.04 17.5181C40.04 18.9581 39.544 20.0861 38.552 20.9021C37.56 21.7181 36.168 22.1261 34.376 22.1261H26V5.20605H34.112C35.84 5.20605 37.192 5.59006 38.168 6.35806C39.16 7.12606 39.656 8.20606 39.656 9.59806C39.656 10.5901 39.392 11.4221 38.864 12.0941C38.352 12.7501 37.664 13.1981 36.8 13.4381ZM30.704 11.9261H33.08C34.264 11.9261 34.856 11.4381 34.856 10.4621C34.856 9.45406 34.264 8.95006 33.08 8.95006H30.704V11.9261ZM33.44 18.3341C34.624 18.3341 35.216 17.8381 35.216 16.8461C35.216 16.3341 35.056 15.9421 34.736 15.6701C34.432 15.3981 33.992 15.2621 33.416 15.2621H30.704V18.3341H33.44Z" fill="#1E1E1E"/>
</svg>
