<svg width="105" height="18" viewBox="0 0 105 18" fill="none" xmlns="http://www.w3.org/2000/svg">
<path fill-rule="evenodd" clip-rule="evenodd" d="M8.28949 14.0413L4.0662 16.3442C3.70048 16.5436 3.26557 16.2346 3.33353 15.8236L4.14475 10.918L0.69181 7.42705C0.404191 7.13627 0.568347 6.64197 0.972777 6.58102L5.7279 5.86437L7.838 1.42986C8.01892 1.04964 8.56006 1.04964 8.74099 1.42986L10.8511 5.86437L15.6062 6.58102C16.0106 6.64197 16.1748 7.13627 15.8872 7.42705L12.4342 10.918L13.2455 15.8236C13.3134 16.2346 12.8785 16.5436 12.5128 16.3442L8.28949 14.0413Z" fill="#F59914"/>
<path fill-rule="evenodd" clip-rule="evenodd" d="M30.395 14.0413L26.1717 16.3442C25.806 16.5436 25.371 16.2346 25.439 15.8236L26.2502 10.918L22.7973 7.42705C22.5097 7.13627 22.6738 6.64197 23.0782 6.58102L27.8334 5.86437L29.9435 1.42986C30.1244 1.04964 30.6655 1.04964 30.8465 1.42986L32.9566 5.86437L37.7117 6.58102C38.1161 6.64197 38.2803 7.13627 37.9926 7.42705L34.5397 10.918L35.3509 15.8236C35.4189 16.2346 34.984 16.5436 34.6183 16.3442L30.395 14.0413Z" fill="#F59914"/>
<path fill-rule="evenodd" clip-rule="evenodd" d="M52.5007 14.5218L48.2774 16.8246C47.9117 17.024 47.4768 16.715 47.5447 16.3041L48.3559 11.3985L44.903 7.90752C44.6154 7.61674 44.7795 7.12244 45.184 7.06149L49.9391 6.34484L52.0492 1.91033C52.2301 1.53011 52.7712 1.53011 52.9522 1.91033L55.0623 6.34484L59.8174 7.06149C60.2218 7.12244 60.386 7.61674 60.0984 7.90752L56.6454 11.3985L57.4566 16.3041C57.5246 16.715 57.0897 17.024 56.724 16.8246L52.5007 14.5218Z" fill="#F59914"/>
<path fill-rule="evenodd" clip-rule="evenodd" d="M74.6049 14.0413L70.3816 16.3442C70.0159 16.5436 69.581 16.2346 69.649 15.8236L70.4602 10.918L67.0072 7.42705C66.7196 7.13627 66.8838 6.64197 67.2882 6.58102L72.0433 5.86437L74.1534 1.42986C74.3344 1.04964 74.8755 1.04964 75.0564 1.42986L77.1665 5.86437L81.9216 6.58102C82.3261 6.64197 82.4902 7.13627 82.2026 7.42705L78.7497 10.918L79.5609 15.8236C79.6288 16.2346 79.1939 16.5436 78.8282 16.3442L74.6049 14.0413Z" fill="#F59914"/>
<path fill-rule="evenodd" clip-rule="evenodd" d="M96.7104 14.0413L92.4871 16.3442C92.1214 16.5436 91.6865 16.2346 91.7544 15.8236L92.5656 10.918L89.1127 7.42705C88.8251 7.13627 88.9892 6.64197 89.3937 6.58102L94.1488 5.86437L96.2589 1.42986C96.4398 1.04964 96.981 1.04964 97.1619 1.42986L99.272 5.86437L104.027 6.58102C104.432 6.64197 104.596 7.13627 104.308 7.42705L100.855 10.918L101.666 15.8236C101.734 16.2346 101.299 16.5436 100.934 16.3442L96.7104 14.0413Z" stroke="#9B9B9B"/>
</svg>
